{
    "asset" : {
        "generator" : "Khronos glTF Blender I/O v1.5.17",
        "version" : "2.0"
    },
    "scene" : 0,
    "scenes" : [
        {
            "name" : "Scene",
            "nodes" : [
                0,
                1,
                2,
                3
            ]
        }
    ],
    "nodes" : [
        {
            "mesh" : 0,
            "name" : "Cube",
            "translation" : [
                4.56802225112915,
                0,
                0
            ]
        },
        {
            "name" : "Light",
            "rotation" : [
                0.16907575726509094,
                0.7558803558349609,
                -0.27217137813568115,
                0.570947527885437
            ],
            "translation" : [
                4.076245307922363,
                5.903861999511719,
                -1.0054539442062378
            ]
        },
        {
            "name" : "Camera",
            "rotation" : [
                0.483536034822464,
                0.33687159419059753,
                -0.20870360732078552,
                0.7804827094078064
            ],
            "translation" : [
                7.358891487121582,
                4.958309173583984,
                6.925790786743164
            ]
        },
        {
            "mesh" : 1,
            "name" : "ladder",
            "rotation" : [
                0.28652361035346985,
                0,
                0,
                0.9580731987953186
            ],
            "scale" : [
                0.06337398290634155,
                0.06337398290634155,
                0.06337398290634155
            ],
            "translation" : [
                3.072969436645508,
                0,
                -3.4153993129730225
            ]
        }
    ],
    "materials" : [
        {
            "doubleSided" : true,
            "name" : "Roof legde",
            "pbrMetallicRoughness" : {
                "baseColorFactor" : [
                    0.8468735814094543,
                    0.5840787291526794,
                    0.4286905527114868,
                    1
                ],
                "metallicFactor" : 0
            }
        },
        {
            "doubleSided" : true,
            "name" : "door",
            "pbrMetallicRoughness" : {
                "baseColorFactor" : [
                    0,
                    0,
                    0,
                    1
                ],
                "metallicFactor" : 0.10454545170068741,
                "roughnessFactor" : 0.03636366128921509
            }
        },
        {
            "doubleSided" : true,
            "name" : "Outer walls",
            "pbrMetallicRoughness" : {
                "baseColorFactor" : [
                    0.39311447739601135,
                    0.27356189489364624,
                    0.20250633358955383,
                    1
                ],
                "metallicFactor" : 0
            }
        },
        {
            "doubleSided" : true,
            "name" : "Ladder",
            "pbrMetallicRoughness" : {
                "baseColorFactor" : [
                    0.2202553004026413,
                    0.09701480716466904,
                    0.029803898185491562,
                    1
                ],
                "metallicFactor" : 0,
                "roughnessFactor" : 0.5
            }
        }
    ],
    "meshes" : [
        {
            "name" : "Cube",
            "primitives" : [
                {
                    "attributes" : {
                        "POSITION" : 0,
                        "NORMAL" : 1,
                        "TEXCOORD_0" : 2
                    },
                    "indices" : 3,
                    "material" : 0
                },
                {
                    "attributes" : {
                        "POSITION" : 4,
                        "NORMAL" : 5,
                        "TEXCOORD_0" : 6
                    },
                    "indices" : 7,
                    "material" : 1
                },
                {
                    "attributes" : {
                        "POSITION" : 8,
                        "NORMAL" : 9,
                        "TEXCOORD_0" : 10
                    },
                    "indices" : 11,
                    "material" : 2
                }
            ]
        },
        {
            "name" : "Cylinder.004",
            "primitives" : [
                {
                    "attributes" : {
                        "POSITION" : 12,
                        "NORMAL" : 13,
                        "TEXCOORD_0" : 14
                    },
                    "indices" : 15,
                    "material" : 3
                }
            ]
        }
    ],
    "accessors" : [
        {
            "bufferView" : 0,
            "componentType" : 5126,
            "count" : 151,
            "max" : [
                1,
                1.1238899230957031,
                1
            ],
            "min" : [
                -2.448765754699707,
                -1,
                -4.494951248168945
            ],
            "type" : "VEC3"
        },
        {
            "bufferView" : 1,
            "componentType" : 5126,
            "count" : 151,
            "type" : "VEC3"
        },
        {
            "bufferView" : 2,
            "componentType" : 5126,
            "count" : 151,
            "type" : "VEC2"
        },
        {
            "bufferView" : 3,
            "componentType" : 5123,
            "count" : 324,
            "type" : "SCALAR"
        },
        {
            "bufferView" : 4,
            "componentType" : 5126,
            "count" : 84,
            "max" : [
                0.35933050513267517,
                1,
                1
            ],
            "min" : [
                -2.3012640476226807,
                -0.9879083037376404,
                -4.097522735595703
            ],
            "type" : "VEC3"
        },
        {
            "bufferView" : 5,
            "componentType" : 5126,
            "count" : 84,
            "type" : "VEC3"
        },
        {
            "bufferView" : 6,
            "componentType" : 5126,
            "count" : 84,
            "type" : "VEC2"
        },
        {
            "bufferView" : 7,
            "componentType" : 5123,
            "count" : 144,
            "type" : "SCALAR"
        },
        {
            "bufferView" : 8,
            "componentType" : 5126,
            "count" : 58,
            "max" : [
                1,
                1.1238899230957031,
                1
            ],
            "min" : [
                -2.448765754699707,
                1,
                -4.494951248168945
            ],
            "type" : "VEC3"
        },
        {
            "bufferView" : 9,
            "componentType" : 5126,
            "count" : 58,
            "type" : "VEC3"
        },
        {
            "bufferView" : 10,
            "componentType" : 5126,
            "count" : 58,
            "type" : "VEC2"
        },
        {
            "bufferView" : 11,
            "componentType" : 5123,
            "count" : 120,
            "type" : "SCALAR"
        },
        {
            "bufferView" : 12,
            "componentType" : 5126,
            "count" : 144,
            "max" : [
                0.9510565400123596,
                1,
                1
            ],
            "min" : [
                -7.444737911224365,
                -1,
                -1
            ],
            "type" : "VEC3"
        },
        {
            "bufferView" : 13,
            "componentType" : 5126,
            "count" : 144,
            "type" : "VEC3"
        },
        {
            "bufferView" : 14,
            "componentType" : 5126,
            "count" : 144,
            "type" : "VEC2"
        },
        {
            "bufferView" : 15,
            "componentType" : 5123,
            "count" : 252,
            "type" : "SCALAR"
        }
    ],
    "bufferViews" : [
        {
            "buffer" : 0,
            "byteLength" : 1812,
            "byteOffset" : 0
        },
        {
            "buffer" : 0,
            "byteLength" : 1812,
            "byteOffset" : 1812
        },
        {
            "buffer" : 0,
            "byteLength" : 1208,
            "byteOffset" : 3624
        },
        {
            "buffer" : 0,
            "byteLength" : 648,
            "byteOffset" : 4832
        },
        {
            "buffer" : 0,
            "byteLength" : 1008,
            "byteOffset" : 5480
        },
        {
            "buffer" : 0,
            "byteLength" : 1008,
            "byteOffset" : 6488
        },
        {
            "buffer" : 0,
            "byteLength" : 672,
            "byteOffset" : 7496
        },
        {
            "buffer" : 0,
            "byteLength" : 288,
            "byteOffset" : 8168
        },
        {
            "buffer" : 0,
            "byteLength" : 696,
            "byteOffset" : 8456
        },
        {
            "buffer" : 0,
            "byteLength" : 696,
            "byteOffset" : 9152
        },
        {
            "buffer" : 0,
            "byteLength" : 464,
            "byteOffset" : 9848
        },
        {
            "buffer" : 0,
            "byteLength" : 240,
            "byteOffset" : 10312
        },
        {
            "buffer" : 0,
            "byteLength" : 1728,
            "byteOffset" : 10552
        },
        {
            "buffer" : 0,
            "byteLength" : 1728,
            "byteOffset" : 12280
        },
        {
            "buffer" : 0,
            "byteLength" : 1152,
            "byteOffset" : 14008
        },
        {
            "buffer" : 0,
            "byteLength" : 504,
            "byteOffset" : 15160
        }
    ],
    "buffers" : [
        {
            "byteLength" : 15664,
            "uri" : "data:application/octet-stream;base64,"
        }
    ]
}
