{
    "asset" : {
        "generator" : "Khronos glTF Blender I/O v1.6.16",
        "version" : "2.0"
    },
    "scene" : 0,
    "scenes" : [
        {
            "name" : "Scene",
            "nodes" : [
                0,
                1,
                2,
                3,
                4,
                5,
                6
            ]
        }
    ],
    "nodes" : [
        {
            "mesh" : 0,
            "name" : "SA_Prop_Citywall_01",
            "rotation" : [
                0.7071068286895752,
                0,
                0,
                0.7071067094802856
            ],
            "scale" : [
                0.009999999776482582,
                0.009999999776482582,
                0.009999999776482582
            ],
            "translation" : [
                -0.40834131836891174,
                0,
                0
            ]
        },
        {
            "mesh" : 1,
            "name" : "SA_Prop_Citywall_02",
            "rotation" : [
                0.7071068286895752,
                0,
                0,
                0.7071067094802856
            ],
            "scale" : [
                0.009999999776482582,
                0.009999999776482582,
                0.009999999776482582
            ],
            "translation" : [
                0.2056197077035904,
                0,
                0
            ]
        },
        {
            "mesh" : 2,
            "name" : "SA_Prop_Citywall_03",
            "rotation" : [
                0.7071068286895752,
                0,
                0,
                0.7071067094802856
            ],
            "scale" : [
                0.009999999776482582,
                0.009999999776482582,
                0.009999999776482582
            ],
            "translation" : [
                -0.2049359232187271,
                0,
                0
            ]
        },
        {
            "mesh" : 3,
            "name" : "SA_Prop_Citywall_Corner_01",
            "rotation" : [
                0.7071068286895752,
                0,
                0,
                0.7071067094802856
            ],
            "scale" : [
                0.009999999776482582,
                0.009999999776482582,
                0.009999999776482582
            ]
        },
        {
            "mesh" : 4,
            "name" : "SA_Prop_Citywall_Damaged_01",
            "rotation" : [
                0.7071068286895752,
                0,
                0,
                0.7071067094802856
            ],
            "scale" : [
                0.009999999776482582,
                0.009999999776482582,
                0.009999999776482582
            ]
        },
        {
            "mesh" : 5,
            "name" : "SA_Prop_Citywall_Gate_01",
            "rotation" : [
                0.7071068286895752,
                0,
                0,
                0.7071067094802856
            ],
            "scale" : [
                0.009999999776482582,
                0.009999999776482582,
                0.009999999776482582
            ],
            "translation" : [
                0.5038309097290039,
                0,
                0
            ]
        },
        {
            "mesh" : 6,
            "name" : "SA_Props_Citywall_Gateblock",
            "rotation" : [
                0.7071068286895752,
                0,
                0,
                0.7071067094802856
            ],
            "scale" : [
                0.009999999776482582,
                0.009999999776482582,
                0.009999999776482582
            ],
            "translation" : [
                0.43112677335739136,
                0,
                0
            ]
        }
    ],
    "materials" : [
        {
            "doubleSided" : true,
            "name" : "City_Walls",
            "pbrMetallicRoughness" : {
                "baseColorTexture" : {
                    "index" : 0
                },
                "metallicFactor" : 0,
                "roughnessFactor" : 0.5527864098548889
            }
        }
    ],
    "meshes" : [
        {
            "name" : "Mesh",
            "primitives" : [
                {
                    "attributes" : {
                        "POSITION" : 0,
                        "NORMAL" : 1,
                        "TEXCOORD_0" : 2
                    },
                    "indices" : 3,
                    "material" : 0
                }
            ]
        },
        {
            "name" : "Mesh.001",
            "primitives" : [
                {
                    "attributes" : {
                        "POSITION" : 4,
                        "NORMAL" : 5,
                        "TEXCOORD_0" : 6
                    },
                    "indices" : 7,
                    "material" : 0
                }
            ]
        },
        {
            "name" : "Mesh.002",
            "primitives" : [
                {
                    "attributes" : {
                        "POSITION" : 8,
                        "NORMAL" : 9,
                        "TEXCOORD_0" : 10
                    },
                    "indices" : 11,
                    "material" : 0
                }
            ]
        },
        {
            "name" : "Mesh.003",
            "primitives" : [
                {
                    "attributes" : {
                        "POSITION" : 12,
                        "NORMAL" : 13,
                        "TEXCOORD_0" : 14
                    },
                    "indices" : 15,
                    "material" : 0
                }
            ]
        },
        {
            "name" : "Mesh.004",
            "primitives" : [
                {
                    "attributes" : {
                        "POSITION" : 16,
                        "NORMAL" : 17,
                        "TEXCOORD_0" : 18
                    },
                    "indices" : 19,
                    "material" : 0
                }
            ]
        },
        {
            "name" : "Mesh.005",
            "primitives" : [
                {
                    "attributes" : {
                        "POSITION" : 20,
                        "NORMAL" : 21,
                        "TEXCOORD_0" : 22
                    },
                    "indices" : 23,
                    "material" : 0
                }
            ]
        },
        {
            "name" : "Mesh.006",
            "primitives" : [
                {
                    "attributes" : {
                        "POSITION" : 24,
                        "NORMAL" : 25,
                        "TEXCOORD_0" : 26
                    },
                    "indices" : 27,
                    "material" : 0
                }
            ]
        }
    ],
    "textures" : [
        {
            "sampler" : 0,
            "source" : 0
        }
    ],
    "images" : [
        {
            "bufferView" : 4,
            "mimeType" : "image/png",
            "name" : "SimpleApocalypse_Texture"
        }
    ],
    "accessors" : [
        {
            "bufferView" : 0,
            "componentType" : 5126,
            "count" : 168,
            "max" : [
                14.988555908203125,
                6.103515625e-05,
                -2.842170943040401e-14
            ],
            "min" : [
                0,
                -2.25152587890625,
                -19.403743743896484
            ],
            "type" : "VEC3"
        },
        {
            "bufferView" : 1,
            "componentType" : 5126,
            "count" : 168,
            "type" : "VEC3"
        },
        {
            "bufferView" : 2,
            "componentType" : 5126,
            "count" : 168,
            "type" : "VEC2"
        },
        {
            "bufferView" : 3,
            "componentType" : 5123,
            "count" : 324,
            "type" : "SCALAR"
        },
        {
            "bufferView" : 5,
            "componentType" : 5126,
            "count" : 218,
            "max" : [
                14.988555908203125,
                6.103515625e-05,
                -2.842170943040401e-14
            ],
            "min" : [
                0,
                -2.25152587890625,
                -19.40374755859375
            ],
            "type" : "VEC3"
        },
        {
            "bufferView" : 6,
            "componentType" : 5126,
            "count" : 218,
            "type" : "VEC3"
        },
        {
            "bufferView" : 7,
            "componentType" : 5126,
            "count" : 218,
            "type" : "VEC2"
        },
        {
            "bufferView" : 8,
            "componentType" : 5123,
            "count" : 432,
            "type" : "SCALAR"
        },
        {
            "bufferView" : 9,
            "componentType" : 5126,
            "count" : 210,
            "max" : [
                14.988555908203125,
                6.103515625e-05,
                -2.842170943040401e-14
            ],
            "min" : [
                0,
                -2.25152587890625,
                -19.403743743896484
            ],
            "type" : "VEC3"
        },
        {
            "bufferView" : 10,
            "componentType" : 5126,
            "count" : 210,
            "type" : "VEC3"
        },
        {
            "bufferView" : 11,
            "componentType" : 5126,
            "count" : 210,
            "type" : "VEC2"
        },
        {
            "bufferView" : 12,
            "componentType" : 5123,
            "count" : 420,
            "type" : "SCALAR"
        },
        {
            "bufferView" : 13,
            "componentType" : 5126,
            "count" : 24,
            "max" : [
                2.696892738342285,
                0,
                -2.842170943040401e-14
            ],
            "min" : [
                0,
                -2.696892738342285,
                -19.959877014160156
            ],
            "type" : "VEC3"
        },
        {
            "bufferView" : 14,
            "componentType" : 5126,
            "count" : 24,
            "type" : "VEC3"
        },
        {
            "bufferView" : 15,
            "componentType" : 5126,
            "count" : 24,
            "type" : "VEC2"
        },
        {
            "bufferView" : 16,
            "componentType" : 5123,
            "count" : 36,
            "type" : "SCALAR"
        },
        {
            "bufferView" : 17,
            "componentType" : 5126,
            "count" : 952,
            "max" : [
                14.988555908203125,
                9.154014587402344,
                0.9701561331748962
            ],
            "min" : [
                0,
                -8.649055480957031,
                -19.403743743896484
            ],
            "type" : "VEC3"
        },
        {
            "bufferView" : 18,
            "componentType" : 5126,
            "count" : 952,
            "type" : "VEC3"
        },
        {
            "bufferView" : 19,
            "componentType" : 5126,
            "count" : 952,
            "type" : "VEC2"
        },
        {
            "bufferView" : 20,
            "componentType" : 5123,
            "count" : 1608,
            "type" : "SCALAR"
        },
        {
            "bufferView" : 21,
            "componentType" : 5126,
            "count" : 272,
            "max" : [
                14.988555908203125,
                1.16119384765625,
                -2.842170943040401e-14
            ],
            "min" : [
                0,
                -3.41259765625,
                -19.403743743896484
            ],
            "type" : "VEC3"
        },
        {
            "bufferView" : 22,
            "componentType" : 5126,
            "count" : 272,
            "type" : "VEC3"
        },
        {
            "bufferView" : 23,
            "componentType" : 5126,
            "count" : 272,
            "type" : "VEC2"
        },
        {
            "bufferView" : 24,
            "componentType" : 5123,
            "count" : 492,
            "type" : "SCALAR"
        },
        {
            "bufferView" : 25,
            "componentType" : 5126,
            "count" : 56,
            "max" : [
                2.8794522285461426,
                0.2870143949985504,
                0
            ],
            "min" : [
                -2.8794522285461426,
                -0.2870143949985504,
                -6.769869327545166
            ],
            "type" : "VEC3"
        },
        {
            "bufferView" : 26,
            "componentType" : 5126,
            "count" : 56,
            "type" : "VEC3"
        },
        {
            "bufferView" : 27,
            "componentType" : 5126,
            "count" : 56,
            "type" : "VEC2"
        },
        {
            "bufferView" : 28,
            "componentType" : 5123,
            "count" : 84,
            "type" : "SCALAR"
        }
    ],
    "bufferViews" : [
        {
            "buffer" : 0,
            "byteLength" : 2016,
            "byteOffset" : 0
        },
        {
            "buffer" : 0,
            "byteLength" : 2016,
            "byteOffset" : 2016
        },
        {
            "buffer" : 0,
            "byteLength" : 1344,
            "byteOffset" : 4032
        },
        {
            "buffer" : 0,
            "byteLength" : 648,
            "byteOffset" : 5376
        },
        {
            "buffer" : 0,
            "byteLength" : 98503,
            "byteOffset" : 6024
        },
        {
            "buffer" : 0,
            "byteLength" : 2616,
            "byteOffset" : 104528
        },
        {
            "buffer" : 0,
            "byteLength" : 2616,
            "byteOffset" : 107144
        },
        {
            "buffer" : 0,
            "byteLength" : 1744,
            "byteOffset" : 109760
        },
        {
            "buffer" : 0,
            "byteLength" : 864,
            "byteOffset" : 111504
        },
        {
            "buffer" : 0,
            "byteLength" : 2520,
            "byteOffset" : 112368
        },
        {
            "buffer" : 0,
            "byteLength" : 2520,
            "byteOffset" : 114888
        },
        {
            "buffer" : 0,
            "byteLength" : 1680,
            "byteOffset" : 117408
        },
        {
            "buffer" : 0,
            "byteLength" : 840,
            "byteOffset" : 119088
        },
        {
            "buffer" : 0,
            "byteLength" : 288,
            "byteOffset" : 119928
        },
        {
            "buffer" : 0,
            "byteLength" : 288,
            "byteOffset" : 120216
        },
        {
            "buffer" : 0,
            "byteLength" : 192,
            "byteOffset" : 120504
        },
        {
            "buffer" : 0,
            "byteLength" : 72,
            "byteOffset" : 120696
        },
        {
            "buffer" : 0,
            "byteLength" : 11424,
            "byteOffset" : 120768
        },
        {
            "buffer" : 0,
            "byteLength" : 11424,
            "byteOffset" : 132192
        },
        {
            "buffer" : 0,
            "byteLength" : 7616,
            "byteOffset" : 143616
        },
        {
            "buffer" : 0,
            "byteLength" : 3216,
            "byteOffset" : 151232
        },
        {
            "buffer" : 0,
            "byteLength" : 3264,
            "byteOffset" : 154448
        },
        {
            "buffer" : 0,
            "byteLength" : 3264,
            "byteOffset" : 157712
        },
        {
            "buffer" : 0,
            "byteLength" : 2176,
            "byteOffset" : 160976
        },
        {
            "buffer" : 0,
            "byteLength" : 984,
            "byteOffset" : 163152
        },
        {
            "buffer" : 0,
            "byteLength" : 672,
            "byteOffset" : 164136
        },
        {
            "buffer" : 0,
            "byteLength" : 672,
            "byteOffset" : 164808
        },
        {
            "buffer" : 0,
            "byteLength" : 448,
            "byteOffset" : 165480
        },
        {
            "buffer" : 0,
            "byteLength" : 168,
            "byteOffset" : 165928
        }
    ],
    "samplers" : [
        {
            "magFilter" : 9729,
            "minFilter" : 9987
        }
    ],
    "buffers" : [
        {
            "byteLength" : 166096,
            "uri" : "data:application/octet-stream;base64,"
        }
    ]
}
