{
    "asset" : {
        "generator" : "Khronos glTF Blender I/O v1.6.16",
        "version" : "2.0"
    },
    "scene" : 0,
    "scenes" : [
        {
            "name" : "Scene",
            "nodes" : [
                0,
                1,
                3,
                4,
                5,
                6,
                7,
                8
            ]
        }
    ],
    "nodes" : [
        {
            "mesh" : 0,
            "name" : "SA_Prop_AmmoBox_01",
            "rotation" : [
                0.7071068286895752,
                0,
                0,
                0.7071067094802856
            ],
            "scale" : [
                0.009999999776482582,
                0.009999999776482582,
                0.009999999776482582
            ]
        },
        {
            "mesh" : 1,
            "name" : "SA_Prop_AmmoCrate_01",
            "rotation" : [
                0.7071068286895752,
                0,
                0,
                0.7071067094802856
            ],
            "scale" : [
                0.009999999776482582,
                0.009999999776482582,
                0.009999999776482582
            ]
        },
        {
            "mesh" : 2,
            "name" : "SA_Props_AmmoCrateLid"
        },
        {
            "children" : [
                2
            ],
            "mesh" : 3,
            "name" : "SA_Prop_AmmoCrateOpenable_01",
            "rotation" : [
                0.7071068286895752,
                0,
                0,
                0.7071067094802856
            ],
            "scale" : [
                0.009999999776482582,
                0.009999999776482582,
                0.009999999776482582
            ]
        },
        {
            "mesh" : 4,
            "name" : "SA_Prop_AmmoPile_L_01",
            "rotation" : [
                0.7071068286895752,
                0,
                0,
                0.7071067094802856
            ],
            "scale" : [
                0.009999999776482582,
                0.009999999776482582,
                0.009999999776482582
            ]
        },
        {
            "mesh" : 5,
            "name" : "SA_Prop_AmmoPile_L_02",
            "rotation" : [
                0.7071068286895752,
                0,
                0,
                0.7071067094802856
            ],
            "scale" : [
                0.009999999776482582,
                0.009999999776482582,
                0.009999999776482582
            ]
        },
        {
            "mesh" : 6,
            "name" : "SA_Prop_AmmoPile_M_01",
            "rotation" : [
                0.7071068286895752,
                0,
                0,
                0.7071067094802856
            ],
            "scale" : [
                0.009999999776482582,
                0.009999999776482582,
                0.009999999776482582
            ]
        },
        {
            "mesh" : 7,
            "name" : "SA_Prop_AmmoPile_S_01",
            "rotation" : [
                0.7071068286895752,
                0,
                0,
                0.7071067094802856
            ],
            "scale" : [
                0.009999999776482582,
                0.009999999776482582,
                0.009999999776482582
            ]
        },
        {
            "mesh" : 8,
            "name" : "SA_Prop_AmmoPile_XL_01",
            "rotation" : [
                0.7071068286895752,
                0,
                0,
                0.7071067094802856
            ],
            "scale" : [
                0.009999999776482582,
                0.009999999776482582,
                0.009999999776482582
            ]
        }
    ],
    "materials" : [
        {
            "doubleSided" : true,
            "name" : "AmmoPile",
            "pbrMetallicRoughness" : {
                "baseColorTexture" : {
                    "index" : 0
                },
                "metallicFactor" : 0,
                "roughnessFactor" : 0.5527864098548889
            }
        },
        {
            "doubleSided" : true,
            "name" : "lambert1.002",
            "pbrMetallicRoughness" : {
                "baseColorFactor" : [
                    0.5,
                    0.5,
                    0.5,
                    1
                ],
                "metallicFactor" : 0,
                "roughnessFactor" : 0.5527864098548889
            }
        }
    ],
    "meshes" : [
        {
            "name" : "Mesh",
            "primitives" : [
                {
                    "attributes" : {
                        "POSITION" : 0,
                        "NORMAL" : 1,
                        "TEXCOORD_0" : 2
                    },
                    "indices" : 3,
                    "material" : 0
                }
            ]
        },
        {
            "name" : "Mesh.001",
            "primitives" : [
                {
                    "attributes" : {
                        "POSITION" : 4,
                        "NORMAL" : 5,
                        "TEXCOORD_0" : 6
                    },
                    "indices" : 7,
                    "material" : 0
                }
            ]
        },
        {
            "name" : "Mesh.003",
            "primitives" : [
                {
                    "attributes" : {
                        "POSITION" : 8,
                        "NORMAL" : 9,
                        "TEXCOORD_0" : 10
                    },
                    "indices" : 11,
                    "material" : 1
                }
            ]
        },
        {
            "name" : "Mesh.002",
            "primitives" : [
                {
                    "attributes" : {
                        "POSITION" : 12,
                        "NORMAL" : 13,
                        "TEXCOORD_0" : 14
                    },
                    "indices" : 15,
                    "material" : 0
                }
            ]
        },
        {
            "name" : "Mesh.004",
            "primitives" : [
                {
                    "attributes" : {
                        "POSITION" : 16,
                        "NORMAL" : 17,
                        "TEXCOORD_0" : 18
                    },
                    "indices" : 19,
                    "material" : 0
                }
            ]
        },
        {
            "name" : "Mesh.005",
            "primitives" : [
                {
                    "attributes" : {
                        "POSITION" : 20,
                        "NORMAL" : 21,
                        "TEXCOORD_0" : 22
                    },
                    "indices" : 23,
                    "material" : 0
                }
            ]
        },
        {
            "name" : "Mesh.006",
            "primitives" : [
                {
                    "attributes" : {
                        "POSITION" : 24,
                        "NORMAL" : 25,
                        "TEXCOORD_0" : 26
                    },
                    "indices" : 27,
                    "material" : 0
                }
            ]
        },
        {
            "name" : "Mesh.007",
            "primitives" : [
                {
                    "attributes" : {
                        "POSITION" : 28,
                        "NORMAL" : 29,
                        "TEXCOORD_0" : 30
                    },
                    "indices" : 31,
                    "material" : 0
                }
            ]
        },
        {
            "name" : "Mesh.008",
            "primitives" : [
                {
                    "attributes" : {
                        "POSITION" : 32,
                        "NORMAL" : 33,
                        "TEXCOORD_0" : 34,
                        "COLOR_0" : 35
                    },
                    "indices" : 36,
                    "material" : 0
                }
            ]
        }
    ],
    "textures" : [
        {
            "sampler" : 0,
            "source" : 0
        }
    ],
    "images" : [
        {
            "bufferView" : 4,
            "mimeType" : "image/png",
            "name" : "SimpleApocalypse_Texture"
        }
    ],
    "accessors" : [
        {
            "bufferView" : 0,
            "componentType" : 5126,
            "count" : 136,
            "max" : [
                0.5403957366943359,
                0.2680950164794922,
                -3.552713678800501e-14
            ],
            "min" : [
                -0.5403957366943359,
                -0.2680950164794922,
                -1.0819861888885498
            ],
            "type" : "VEC3"
        },
        {
            "bufferView" : 1,
            "componentType" : 5126,
            "count" : 136,
            "type" : "VEC3"
        },
        {
            "bufferView" : 2,
            "componentType" : 5126,
            "count" : 136,
            "type" : "VEC2"
        },
        {
            "bufferView" : 3,
            "componentType" : 5123,
            "count" : 264,
            "type" : "SCALAR"
        },
        {
            "bufferView" : 5,
            "componentType" : 5126,
            "count" : 248,
            "max" : [
                1.2962379455566406,
                0.6837882995605469,
                -2.842170943040401e-14
            ],
            "min" : [
                -1.2962379455566406,
                -0.6837882995605469,
                -1.5417805910110474
            ],
            "type" : "VEC3"
        },
        {
            "bufferView" : 6,
            "componentType" : 5126,
            "count" : 248,
            "type" : "VEC3"
        },
        {
            "bufferView" : 7,
            "componentType" : 5126,
            "count" : 248,
            "type" : "VEC2"
        },
        {
            "bufferView" : 8,
            "componentType" : 5123,
            "count" : 474,
            "type" : "SCALAR"
        },
        {
            "bufferView" : 9,
            "componentType" : 5126,
            "count" : 110,
            "max" : [
                1.2962379455566406,
                -0.25763094425201416,
                -1.1789588928222656
            ],
            "min" : [
                -1.2962379455566406,
                -1.062103033065796,
                -2.4433350563049316
            ],
            "type" : "VEC3"
        },
        {
            "bufferView" : 10,
            "componentType" : 5126,
            "count" : 110,
            "type" : "VEC3"
        },
        {
            "bufferView" : 11,
            "componentType" : 5126,
            "count" : 110,
            "type" : "VEC2"
        },
        {
            "bufferView" : 12,
            "componentType" : 5123,
            "count" : 222,
            "type" : "SCALAR"
        },
        {
            "bufferView" : 13,
            "componentType" : 5126,
            "count" : 1621,
            "max" : [
                1.2962379455566406,
                1.062103033065796,
                0
            ],
            "min" : [
                -1.2962379455566406,
                -0.30547356605529785,
                -1.3581041097640991
            ],
            "type" : "VEC3"
        },
        {
            "bufferView" : 14,
            "componentType" : 5126,
            "count" : 1621,
            "type" : "VEC3"
        },
        {
            "bufferView" : 15,
            "componentType" : 5126,
            "count" : 1621,
            "type" : "VEC2"
        },
        {
            "bufferView" : 16,
            "componentType" : 5123,
            "count" : 2976,
            "type" : "SCALAR"
        },
        {
            "bufferView" : 17,
            "componentType" : 5126,
            "count" : 2140,
            "max" : [
                3.1457176208496094,
                2.156625509262085,
                0.05549860745668411
            ],
            "min" : [
                -3.1457176208496094,
                -2.156627655029297,
                -2.347583532333374
            ],
            "type" : "VEC3"
        },
        {
            "bufferView" : 18,
            "componentType" : 5126,
            "count" : 2140,
            "type" : "VEC3"
        },
        {
            "bufferView" : 19,
            "componentType" : 5126,
            "count" : 2140,
            "type" : "VEC2"
        },
        {
            "bufferView" : 20,
            "componentType" : 5123,
            "count" : 3840,
            "type" : "SCALAR"
        },
        {
            "bufferView" : 21,
            "componentType" : 5126,
            "count" : 2140,
            "max" : [
                3.1457176208496094,
                2.156625509262085,
                0.05549860745668411
            ],
            "min" : [
                -3.1457176208496094,
                -2.156627655029297,
                -2.347583532333374
            ],
            "type" : "VEC3"
        },
        {
            "bufferView" : 22,
            "componentType" : 5126,
            "count" : 2140,
            "type" : "VEC3"
        },
        {
            "bufferView" : 23,
            "componentType" : 5126,
            "count" : 2140,
            "type" : "VEC2"
        },
        {
            "bufferView" : 24,
            "componentType" : 5123,
            "count" : 3840,
            "type" : "SCALAR"
        },
        {
            "bufferView" : 25,
            "componentType" : 5126,
            "count" : 760,
            "max" : [
                2.9709701538085938,
                1.6604270935058594,
                0.05552404001355171
            ],
            "min" : [
                -2.9709701538085938,
                -1.6604270935058594,
                -1.506798505783081
            ],
            "type" : "VEC3"
        },
        {
            "bufferView" : 26,
            "componentType" : 5126,
            "count" : 760,
            "type" : "VEC3"
        },
        {
            "bufferView" : 27,
            "componentType" : 5126,
            "count" : 760,
            "type" : "VEC2"
        },
        {
            "bufferView" : 28,
            "componentType" : 5123,
            "count" : 1380,
            "type" : "SCALAR"
        },
        {
            "bufferView" : 29,
            "componentType" : 5126,
            "count" : 516,
            "max" : [
                1.2962379455566406,
                0.7020301818847656,
                -2.842170943040401e-14
            ],
            "min" : [
                -1.2962379455566406,
                -0.7020301818847656,
                -2.856276035308838
            ],
            "type" : "VEC3"
        },
        {
            "bufferView" : 30,
            "componentType" : 5126,
            "count" : 516,
            "type" : "VEC3"
        },
        {
            "bufferView" : 31,
            "componentType" : 5126,
            "count" : 516,
            "type" : "VEC2"
        },
        {
            "bufferView" : 32,
            "componentType" : 5123,
            "count" : 948,
            "type" : "SCALAR"
        },
        {
            "bufferView" : 33,
            "componentType" : 5126,
            "count" : 4815,
            "max" : [
                3.514902114868164,
                2.6024169921875,
                0.08751067519187927
            ],
            "min" : [
                -3.514902114868164,
                -2.602418899536133,
                -2.3517448902130127
            ],
            "type" : "VEC3"
        },
        {
            "bufferView" : 34,
            "componentType" : 5126,
            "count" : 4815,
            "type" : "VEC3"
        },
        {
            "bufferView" : 35,
            "componentType" : 5126,
            "count" : 4815,
            "type" : "VEC2"
        },
        {
            "bufferView" : 36,
            "componentType" : 5123,
            "count" : 4815,
            "normalized" : true,
            "type" : "VEC4"
        },
        {
            "bufferView" : 37,
            "componentType" : 5123,
            "count" : 8454,
            "type" : "SCALAR"
        }
    ],
    "bufferViews" : [
        {
            "buffer" : 0,
            "byteLength" : 1632,
            "byteOffset" : 0
        },
        {
            "buffer" : 0,
            "byteLength" : 1632,
            "byteOffset" : 1632
        },
        {
            "buffer" : 0,
            "byteLength" : 1088,
            "byteOffset" : 3264
        },
        {
            "buffer" : 0,
            "byteLength" : 528,
            "byteOffset" : 4352
        },
        {
            "buffer" : 0,
            "byteLength" : 98503,
            "byteOffset" : 4880
        },
        {
            "buffer" : 0,
            "byteLength" : 2976,
            "byteOffset" : 103384
        },
        {
            "buffer" : 0,
            "byteLength" : 2976,
            "byteOffset" : 106360
        },
        {
            "buffer" : 0,
            "byteLength" : 1984,
            "byteOffset" : 109336
        },
        {
            "buffer" : 0,
            "byteLength" : 948,
            "byteOffset" : 111320
        },
        {
            "buffer" : 0,
            "byteLength" : 1320,
            "byteOffset" : 112268
        },
        {
            "buffer" : 0,
            "byteLength" : 1320,
            "byteOffset" : 113588
        },
        {
            "buffer" : 0,
            "byteLength" : 880,
            "byteOffset" : 114908
        },
        {
            "buffer" : 0,
            "byteLength" : 444,
            "byteOffset" : 115788
        },
        {
            "buffer" : 0,
            "byteLength" : 19452,
            "byteOffset" : 116232
        },
        {
            "buffer" : 0,
            "byteLength" : 19452,
            "byteOffset" : 135684
        },
        {
            "buffer" : 0,
            "byteLength" : 12968,
            "byteOffset" : 155136
        },
        {
            "buffer" : 0,
            "byteLength" : 5952,
            "byteOffset" : 168104
        },
        {
            "buffer" : 0,
            "byteLength" : 25680,
            "byteOffset" : 174056
        },
        {
            "buffer" : 0,
            "byteLength" : 25680,
            "byteOffset" : 199736
        },
        {
            "buffer" : 0,
            "byteLength" : 17120,
            "byteOffset" : 225416
        },
        {
            "buffer" : 0,
            "byteLength" : 7680,
            "byteOffset" : 242536
        },
        {
            "buffer" : 0,
            "byteLength" : 25680,
            "byteOffset" : 250216
        },
        {
            "buffer" : 0,
            "byteLength" : 25680,
            "byteOffset" : 275896
        },
        {
            "buffer" : 0,
            "byteLength" : 17120,
            "byteOffset" : 301576
        },
        {
            "buffer" : 0,
            "byteLength" : 7680,
            "byteOffset" : 318696
        },
        {
            "buffer" : 0,
            "byteLength" : 9120,
            "byteOffset" : 326376
        },
        {
            "buffer" : 0,
            "byteLength" : 9120,
            "byteOffset" : 335496
        },
        {
            "buffer" : 0,
            "byteLength" : 6080,
            "byteOffset" : 344616
        },
        {
            "buffer" : 0,
            "byteLength" : 2760,
            "byteOffset" : 350696
        },
        {
            "buffer" : 0,
            "byteLength" : 6192,
            "byteOffset" : 353456
        },
        {
            "buffer" : 0,
            "byteLength" : 6192,
            "byteOffset" : 359648
        },
        {
            "buffer" : 0,
            "byteLength" : 4128,
            "byteOffset" : 365840
        },
        {
            "buffer" : 0,
            "byteLength" : 1896,
            "byteOffset" : 369968
        },
        {
            "buffer" : 0,
            "byteLength" : 57780,
            "byteOffset" : 371864
        },
        {
            "buffer" : 0,
            "byteLength" : 57780,
            "byteOffset" : 429644
        },
        {
            "buffer" : 0,
            "byteLength" : 38520,
            "byteOffset" : 487424
        },
        {
            "buffer" : 0,
            "byteLength" : 38520,
            "byteOffset" : 525944
        },
        {
            "buffer" : 0,
            "byteLength" : 16908,
            "byteOffset" : 564464
        }
    ],
    "samplers" : [
        {
            "magFilter" : 9729,
            "minFilter" : 9987
        }
    ],
    "buffers" : [
        {
            "byteLength" : 581372,
            "uri" : "data:application/octet-stream;base64,"
        }
    ]
}
