{
    "asset" : {
        "generator" : "Khronos glTF Blender I/O v1.6.16",
        "version" : "2.0"
    },
    "scene" : 0,
    "scenes" : [
        {
            "name" : "Scene",
            "nodes" : [
                0,
                1,
                2,
                3,
                4,
                5,
                6,
                7,
                8
            ]
        }
    ],
    "nodes" : [
        {
            "mesh" : 0,
            "name" : "SA_Prop_BrokenAPC_01",
            "rotation" : [
                0.7071068286895752,
                0,
                0,
                0.7071067094802856
            ],
            "scale" : [
                0.009999999776482582,
                0.009999999776482582,
                0.009999999776482582
            ]
        },
        {
            "mesh" : 1,
            "name" : "SA_Prop_BrokenTank_01",
            "rotation" : [
                0.7071068286895752,
                0,
                0,
                0.7071067094802856
            ],
            "scale" : [
                0.009999999776482582,
                0.009999999776482582,
                0.009999999776482582
            ]
        },
        {
            "mesh" : 2,
            "name" : "SA_Prop_BurntAPC_01",
            "rotation" : [
                0.7071068286895752,
                0,
                0,
                0.7071067094802856
            ],
            "scale" : [
                0.009999999776482582,
                0.009999999776482582,
                0.009999999776482582
            ]
        },
        {
            "mesh" : 3,
            "name" : "SA_Prop_BurntBrown_Ute_01",
            "rotation" : [
                0.7071068286895752,
                0,
                0,
                0.7071067094802856
            ],
            "scale" : [
                0.009999999776482582,
                0.009999999776482582,
                0.009999999776482582
            ]
        },
        {
            "mesh" : 4,
            "name" : "SA_Prop_BurntBrown_Ute_02",
            "rotation" : [
                0.7071068286895752,
                0,
                0,
                0.7071067094802856
            ],
            "scale" : [
                0.009999999776482582,
                0.009999999776482582,
                0.009999999776482582
            ]
        },
        {
            "mesh" : 5,
            "name" : "SA_Prop_BurntBlack_Car_01",
            "rotation" : [
                0.7071068286895752,
                0,
                0,
                0.7071067094802856
            ],
            "scale" : [
                0.009999999776482582,
                0.009999999776482582,
                0.009999999776482582
            ]
        },
        {
            "mesh" : 6,
            "name" : "SA_Prop_BurntBlack_FamilyCar_01",
            "rotation" : [
                0.7071068286895752,
                0,
                0,
                0.7071067094802856
            ],
            "scale" : [
                0.009999999776482582,
                0.009999999776482582,
                0.009999999776482582
            ]
        },
        {
            "mesh" : 7,
            "name" : "SA_Prop_BurntBlack_RV_01",
            "rotation" : [
                0.7071068286895752,
                0,
                0,
                0.7071067094802856
            ],
            "scale" : [
                0.009999999776482582,
                0.009999999776482582,
                0.009999999776482582
            ]
        },
        {
            "mesh" : 8,
            "name" : "SA_Prop_BurntBlack_Ute_01",
            "rotation" : [
                0.7071068286895752,
                0,
                0,
                0.7071067094802856
            ],
            "scale" : [
                0.009999999776482582,
                0.009999999776482582,
                0.009999999776482582
            ]
        }
    ],
    "materials" : [
        {
            "doubleSided" : true,
            "name" : "broken_vehicles",
            "pbrMetallicRoughness" : {
                "baseColorTexture" : {
                    "index" : 0
                },
                "metallicFactor" : 0,
                "roughnessFactor" : 0.5527864098548889
            }
        }
    ],
    "meshes" : [
        {
            "name" : "Mesh.001",
            "primitives" : [
                {
                    "attributes" : {
                        "POSITION" : 0,
                        "NORMAL" : 1,
                        "TEXCOORD_0" : 2
                    },
                    "indices" : 3,
                    "material" : 0
                }
            ]
        },
        {
            "name" : "Mesh.002",
            "primitives" : [
                {
                    "attributes" : {
                        "POSITION" : 4,
                        "NORMAL" : 5,
                        "TEXCOORD_0" : 6
                    },
                    "indices" : 7,
                    "material" : 0
                }
            ]
        },
        {
            "name" : "Mesh.014",
            "primitives" : [
                {
                    "attributes" : {
                        "POSITION" : 8,
                        "NORMAL" : 9,
                        "TEXCOORD_0" : 10
                    },
                    "indices" : 3,
                    "material" : 0
                }
            ]
        },
        {
            "name" : "Mesh.015",
            "primitives" : [
                {
                    "attributes" : {
                        "POSITION" : 11,
                        "NORMAL" : 12,
                        "TEXCOORD_0" : 13
                    },
                    "indices" : 14,
                    "material" : 0
                }
            ]
        },
        {
            "name" : "Mesh.016",
            "primitives" : [
                {
                    "attributes" : {
                        "POSITION" : 15,
                        "NORMAL" : 16,
                        "TEXCOORD_0" : 17
                    },
                    "indices" : 18,
                    "material" : 0
                }
            ]
        },
        {
            "name" : "Mesh.017",
            "primitives" : [
                {
                    "attributes" : {
                        "POSITION" : 19,
                        "NORMAL" : 20,
                        "TEXCOORD_0" : 21,
                        "COLOR_0" : 22
                    },
                    "indices" : 23,
                    "material" : 0
                }
            ]
        },
        {
            "name" : "Mesh.018",
            "primitives" : [
                {
                    "attributes" : {
                        "POSITION" : 24,
                        "NORMAL" : 25,
                        "TEXCOORD_0" : 26
                    },
                    "indices" : 27,
                    "material" : 0
                }
            ]
        },
        {
            "name" : "Mesh.019",
            "primitives" : [
                {
                    "attributes" : {
                        "POSITION" : 28,
                        "NORMAL" : 29,
                        "TEXCOORD_0" : 30
                    },
                    "indices" : 31,
                    "material" : 0
                }
            ]
        },
        {
            "name" : "Mesh.020",
            "primitives" : [
                {
                    "attributes" : {
                        "POSITION" : 32,
                        "NORMAL" : 33,
                        "TEXCOORD_0" : 34
                    },
                    "indices" : 14,
                    "material" : 0
                }
            ]
        }
    ],
    "textures" : [
        {
            "sampler" : 0,
            "source" : 0
        }
    ],
    "images" : [
        {
            "bufferView" : 4,
            "mimeType" : "image/png",
            "name" : "SimpleApocalypse_Texture"
        }
    ],
    "accessors" : [
        {
            "bufferView" : 0,
            "componentType" : 5126,
            "count" : 2990,
            "max" : [
                3.2758255004882812,
                5.284958839416504,
                -2.842170943040401e-14
            ],
            "min" : [
                -3.275824546813965,
                -5.28495979309082,
                -4.58942985534668
            ],
            "type" : "VEC3"
        },
        {
            "bufferView" : 1,
            "componentType" : 5126,
            "count" : 2990,
            "type" : "VEC3"
        },
        {
            "bufferView" : 2,
            "componentType" : 5126,
            "count" : 2990,
            "type" : "VEC2"
        },
        {
            "bufferView" : 3,
            "componentType" : 5123,
            "count" : 5508,
            "type" : "SCALAR"
        },
        {
            "bufferView" : 5,
            "componentType" : 5126,
            "count" : 3743,
            "max" : [
                5.525957107543945,
                6.442455291748047,
                -2.842170943040401e-14
            ],
            "min" : [
                -5.525957107543945,
                -6.442455291748047,
                -5.841548919677734
            ],
            "type" : "VEC3"
        },
        {
            "bufferView" : 6,
            "componentType" : 5126,
            "count" : 3743,
            "type" : "VEC3"
        },
        {
            "bufferView" : 7,
            "componentType" : 5126,
            "count" : 3743,
            "type" : "VEC2"
        },
        {
            "bufferView" : 8,
            "componentType" : 5123,
            "count" : 7392,
            "type" : "SCALAR"
        },
        {
            "bufferView" : 9,
            "componentType" : 5126,
            "count" : 2990,
            "max" : [
                3.2758255004882812,
                5.284958839416504,
                -3.552713678800501e-14
            ],
            "min" : [
                -3.275824546813965,
                -5.28495979309082,
                -4.58942985534668
            ],
            "type" : "VEC3"
        },
        {
            "bufferView" : 10,
            "componentType" : 5126,
            "count" : 2990,
            "type" : "VEC3"
        },
        {
            "bufferView" : 11,
            "componentType" : 5126,
            "count" : 2990,
            "type" : "VEC2"
        },
        {
            "bufferView" : 12,
            "componentType" : 5126,
            "count" : 924,
            "max" : [
                1.9131889343261719,
                3.5272293090820312,
                -2.842170943040401e-14
            ],
            "min" : [
                -1.9131851196289062,
                -3.5272254943847656,
                -2.495648145675659
            ],
            "type" : "VEC3"
        },
        {
            "bufferView" : 13,
            "componentType" : 5126,
            "count" : 924,
            "type" : "VEC3"
        },
        {
            "bufferView" : 14,
            "componentType" : 5126,
            "count" : 924,
            "type" : "VEC2"
        },
        {
            "bufferView" : 15,
            "componentType" : 5123,
            "count" : 1860,
            "type" : "SCALAR"
        },
        {
            "bufferView" : 16,
            "componentType" : 5126,
            "count" : 1182,
            "max" : [
                1.9131889343261719,
                3.5272293090820312,
                0.3376123011112213
            ],
            "min" : [
                -1.9131851196289062,
                -3.5272257328033447,
                -2.1580357551574707
            ],
            "type" : "VEC3"
        },
        {
            "bufferView" : 17,
            "componentType" : 5126,
            "count" : 1182,
            "type" : "VEC3"
        },
        {
            "bufferView" : 18,
            "componentType" : 5126,
            "count" : 1182,
            "type" : "VEC2"
        },
        {
            "bufferView" : 19,
            "componentType" : 5123,
            "count" : 2418,
            "type" : "SCALAR"
        },
        {
            "bufferView" : 20,
            "componentType" : 5126,
            "count" : 992,
            "max" : [
                1.3914070129394531,
                2.940887451171875,
                -2.1316282072803006e-14
            ],
            "min" : [
                -1.3914108276367188,
                -2.9408836364746094,
                -2.405266046524048
            ],
            "type" : "VEC3"
        },
        {
            "bufferView" : 21,
            "componentType" : 5126,
            "count" : 992,
            "type" : "VEC3"
        },
        {
            "bufferView" : 22,
            "componentType" : 5126,
            "count" : 992,
            "type" : "VEC2"
        },
        {
            "bufferView" : 23,
            "componentType" : 5123,
            "count" : 992,
            "normalized" : true,
            "type" : "VEC4"
        },
        {
            "bufferView" : 24,
            "componentType" : 5123,
            "count" : 2094,
            "type" : "SCALAR"
        },
        {
            "bufferView" : 25,
            "componentType" : 5126,
            "count" : 1112,
            "max" : [
                1.681610107421875,
                2.9069995880126953,
                0.14679862558841705
            ],
            "min" : [
                -1.681610107421875,
                -2.908132553100586,
                -2.3583858013153076
            ],
            "type" : "VEC3"
        },
        {
            "bufferView" : 26,
            "componentType" : 5126,
            "count" : 1112,
            "type" : "VEC3"
        },
        {
            "bufferView" : 27,
            "componentType" : 5126,
            "count" : 1112,
            "type" : "VEC2"
        },
        {
            "bufferView" : 28,
            "componentType" : 5123,
            "count" : 2388,
            "type" : "SCALAR"
        },
        {
            "bufferView" : 29,
            "componentType" : 5126,
            "count" : 2002,
            "max" : [
                2.2965660095214844,
                4.569164276123047,
                0.26455533504486084
            ],
            "min" : [
                -2.296565055847168,
                -4.569164276123047,
                -3.0511112213134766
            ],
            "type" : "VEC3"
        },
        {
            "bufferView" : 30,
            "componentType" : 5126,
            "count" : 2002,
            "type" : "VEC3"
        },
        {
            "bufferView" : 31,
            "componentType" : 5126,
            "count" : 2002,
            "type" : "VEC2"
        },
        {
            "bufferView" : 32,
            "componentType" : 5123,
            "count" : 3768,
            "type" : "SCALAR"
        },
        {
            "bufferView" : 33,
            "componentType" : 5126,
            "count" : 924,
            "max" : [
                1.9131889343261719,
                3.5272293090820312,
                -2.842170943040401e-14
            ],
            "min" : [
                -1.9131851196289062,
                -3.5272254943847656,
                -2.495648145675659
            ],
            "type" : "VEC3"
        },
        {
            "bufferView" : 34,
            "componentType" : 5126,
            "count" : 924,
            "type" : "VEC3"
        },
        {
            "bufferView" : 35,
            "componentType" : 5126,
            "count" : 924,
            "type" : "VEC2"
        }
    ],
    "bufferViews" : [
        {
            "buffer" : 0,
            "byteLength" : 35880,
            "byteOffset" : 0
        },
        {
            "buffer" : 0,
            "byteLength" : 35880,
            "byteOffset" : 35880
        },
        {
            "buffer" : 0,
            "byteLength" : 23920,
            "byteOffset" : 71760
        },
        {
            "buffer" : 0,
            "byteLength" : 11016,
            "byteOffset" : 95680
        },
        {
            "buffer" : 0,
            "byteLength" : 98503,
            "byteOffset" : 106696
        },
        {
            "buffer" : 0,
            "byteLength" : 44916,
            "byteOffset" : 205200
        },
        {
            "buffer" : 0,
            "byteLength" : 44916,
            "byteOffset" : 250116
        },
        {
            "buffer" : 0,
            "byteLength" : 29944,
            "byteOffset" : 295032
        },
        {
            "buffer" : 0,
            "byteLength" : 14784,
            "byteOffset" : 324976
        },
        {
            "buffer" : 0,
            "byteLength" : 35880,
            "byteOffset" : 339760
        },
        {
            "buffer" : 0,
            "byteLength" : 35880,
            "byteOffset" : 375640
        },
        {
            "buffer" : 0,
            "byteLength" : 23920,
            "byteOffset" : 411520
        },
        {
            "buffer" : 0,
            "byteLength" : 11088,
            "byteOffset" : 435440
        },
        {
            "buffer" : 0,
            "byteLength" : 11088,
            "byteOffset" : 446528
        },
        {
            "buffer" : 0,
            "byteLength" : 7392,
            "byteOffset" : 457616
        },
        {
            "buffer" : 0,
            "byteLength" : 3720,
            "byteOffset" : 465008
        },
        {
            "buffer" : 0,
            "byteLength" : 14184,
            "byteOffset" : 468728
        },
        {
            "buffer" : 0,
            "byteLength" : 14184,
            "byteOffset" : 482912
        },
        {
            "buffer" : 0,
            "byteLength" : 9456,
            "byteOffset" : 497096
        },
        {
            "buffer" : 0,
            "byteLength" : 4836,
            "byteOffset" : 506552
        },
        {
            "buffer" : 0,
            "byteLength" : 11904,
            "byteOffset" : 511388
        },
        {
            "buffer" : 0,
            "byteLength" : 11904,
            "byteOffset" : 523292
        },
        {
            "buffer" : 0,
            "byteLength" : 7936,
            "byteOffset" : 535196
        },
        {
            "buffer" : 0,
            "byteLength" : 7936,
            "byteOffset" : 543132
        },
        {
            "buffer" : 0,
            "byteLength" : 4188,
            "byteOffset" : 551068
        },
        {
            "buffer" : 0,
            "byteLength" : 13344,
            "byteOffset" : 555256
        },
        {
            "buffer" : 0,
            "byteLength" : 13344,
            "byteOffset" : 568600
        },
        {
            "buffer" : 0,
            "byteLength" : 8896,
            "byteOffset" : 581944
        },
        {
            "buffer" : 0,
            "byteLength" : 4776,
            "byteOffset" : 590840
        },
        {
            "buffer" : 0,
            "byteLength" : 24024,
            "byteOffset" : 595616
        },
        {
            "buffer" : 0,
            "byteLength" : 24024,
            "byteOffset" : 619640
        },
        {
            "buffer" : 0,
            "byteLength" : 16016,
            "byteOffset" : 643664
        },
        {
            "buffer" : 0,
            "byteLength" : 7536,
            "byteOffset" : 659680
        },
        {
            "buffer" : 0,
            "byteLength" : 11088,
            "byteOffset" : 667216
        },
        {
            "buffer" : 0,
            "byteLength" : 11088,
            "byteOffset" : 678304
        },
        {
            "buffer" : 0,
            "byteLength" : 7392,
            "byteOffset" : 689392
        }
    ],
    "samplers" : [
        {
            "magFilter" : 9729,
            "minFilter" : 9987
        }
    ],
    "buffers" : [
        {
            "byteLength" : 696784,
            "uri" : "data:application/octet-stream;base64,"
        }
    ]
}
