{
    "asset" : {
        "generator" : "Khronos glTF Blender I/O v1.6.16",
        "version" : "2.0"
    },
    "scene" : 0,
    "scenes" : [
        {
            "name" : "Scene",
            "nodes" : [
                0,
                1,
                2,
                3,
                4,
                5,
                6,
                7,
                8,
                9
            ]
        }
    ],
    "nodes" : [
        {
            "mesh" : 0,
            "name" : "SM_Prop_Wall_Concrete_Damaged_02",
            "rotation" : [
                0.7071068286895752,
                0,
                0,
                0.7071067094802856
            ],
            "scale" : [
                0.009999999776482582,
                0.009999999776482582,
                0.009999999776482582
            ]
        },
        {
            "mesh" : 1,
            "name" : "SM_Prop_Wall_Concrete_Damaged_01",
            "rotation" : [
                0.7071068286895752,
                0,
                0,
                0.7071067094802856
            ],
            "scale" : [
                0.009999999776482582,
                0.009999999776482582,
                0.009999999776482582
            ]
        },
        {
            "mesh" : 2,
            "name" : "SM_Prop_Wall_02",
            "rotation" : [
                0.7071068286895752,
                0,
                0,
                0.7071067094802856
            ],
            "scale" : [
                0.009999999776482582,
                0.009999999776482582,
                0.009999999776482582
            ]
        },
        {
            "mesh" : 3,
            "name" : "SM_Prop_Wall_01",
            "rotation" : [
                0.7071068286895752,
                0,
                0,
                0.7071067094802856
            ],
            "scale" : [
                0.009999999776482582,
                0.009999999776482582,
                0.009999999776482582
            ]
        },
        {
            "mesh" : 4,
            "name" : "SM_Env_Wall_Damaged_03",
            "rotation" : [
                0.7071068286895752,
                0,
                0,
                0.7071067094802856
            ],
            "scale" : [
                0.009999999776482582,
                0.009999999776482582,
                0.009999999776482582
            ]
        },
        {
            "mesh" : 5,
            "name" : "SM_Env_Wall_Damaged_02",
            "rotation" : [
                0.7071068286895752,
                0,
                0,
                0.7071067094802856
            ],
            "scale" : [
                0.009999999776482582,
                0.009999999776482582,
                0.009999999776482582
            ]
        },
        {
            "mesh" : 6,
            "name" : "SM_Env_Wall_Damaged_01",
            "rotation" : [
                0.7071068286895752,
                0,
                0,
                0.7071067094802856
            ],
            "scale" : [
                0.009999999776482582,
                0.009999999776482582,
                0.009999999776482582
            ]
        },
        {
            "mesh" : 7,
            "name" : "SM_Env_Tile_Dirt_01",
            "rotation" : [
                0.7071068286895752,
                0,
                0,
                0.7071067094802856
            ],
            "scale" : [
                0.009999999776482582,
                0.009999999776482582,
                0.009999999776482582
            ]
        },
        {
            "mesh" : 8,
            "name" : "SM_Env_Tile_Asphalt_01",
            "rotation" : [
                0.7071068286895752,
                0,
                0,
                0.7071067094802856
            ],
            "scale" : [
                0.009999999776482582,
                0.009999999776482582,
                0.009999999776482582
            ]
        },
        {
            "mesh" : 9,
            "name" : "SM_Prop_Sandbags_01",
            "rotation" : [
                0.7071068286895752,
                0,
                0,
                0.7071067094802856
            ],
            "scale" : [
                0.009999999776482582,
                0.009999999776482582,
                0.009999999776482582
            ]
        }
    ],
    "materials" : [
        {
            "doubleSided" : true,
            "name" : "Prop_textures",
            "pbrMetallicRoughness" : {
                "baseColorTexture" : {
                    "index" : 0
                },
                "metallicFactor" : 0,
                "roughnessFactor" : 0.5527864098548889
            }
        }
    ],
    "meshes" : [
        {
            "name" : "Mesh.007",
            "primitives" : [
                {
                    "attributes" : {
                        "POSITION" : 0,
                        "NORMAL" : 1,
                        "TEXCOORD_0" : 2,
                        "TEXCOORD_1" : 3
                    },
                    "indices" : 4,
                    "material" : 0
                }
            ]
        },
        {
            "name" : "Mesh.008",
            "primitives" : [
                {
                    "attributes" : {
                        "POSITION" : 5,
                        "NORMAL" : 6,
                        "TEXCOORD_0" : 7,
                        "TEXCOORD_1" : 8
                    },
                    "indices" : 9,
                    "material" : 0
                }
            ]
        },
        {
            "name" : "Mesh.009",
            "primitives" : [
                {
                    "attributes" : {
                        "POSITION" : 10,
                        "NORMAL" : 11,
                        "TEXCOORD_0" : 12,
                        "TEXCOORD_1" : 13
                    },
                    "indices" : 14,
                    "material" : 0
                }
            ]
        },
        {
            "name" : "Mesh.010",
            "primitives" : [
                {
                    "attributes" : {
                        "POSITION" : 15,
                        "NORMAL" : 16,
                        "TEXCOORD_0" : 17,
                        "TEXCOORD_1" : 18
                    },
                    "indices" : 19,
                    "material" : 0
                }
            ]
        },
        {
            "name" : "Mesh.018",
            "primitives" : [
                {
                    "attributes" : {
                        "POSITION" : 20,
                        "NORMAL" : 21,
                        "TEXCOORD_0" : 22,
                        "TEXCOORD_1" : 23
                    },
                    "indices" : 24,
                    "material" : 0
                }
            ]
        },
        {
            "name" : "Mesh.019",
            "primitives" : [
                {
                    "attributes" : {
                        "POSITION" : 25,
                        "NORMAL" : 26,
                        "TEXCOORD_0" : 27,
                        "TEXCOORD_1" : 28
                    },
                    "indices" : 29,
                    "material" : 0
                }
            ]
        },
        {
            "name" : "Mesh.020",
            "primitives" : [
                {
                    "attributes" : {
                        "POSITION" : 30,
                        "NORMAL" : 31,
                        "TEXCOORD_0" : 32,
                        "TEXCOORD_1" : 33
                    },
                    "indices" : 34,
                    "material" : 0
                }
            ]
        },
        {
            "name" : "Mesh.021",
            "primitives" : [
                {
                    "attributes" : {
                        "POSITION" : 35,
                        "NORMAL" : 36,
                        "TEXCOORD_0" : 37,
                        "TEXCOORD_1" : 38
                    },
                    "indices" : 39,
                    "material" : 0
                }
            ]
        },
        {
            "name" : "Mesh.022",
            "primitives" : [
                {
                    "attributes" : {
                        "POSITION" : 40,
                        "NORMAL" : 41,
                        "TEXCOORD_0" : 42,
                        "TEXCOORD_1" : 43
                    },
                    "indices" : 39,
                    "material" : 0
                }
            ]
        },
        {
            "name" : "Mesh.023",
            "primitives" : [
                {
                    "attributes" : {
                        "POSITION" : 44,
                        "NORMAL" : 45,
                        "TEXCOORD_0" : 46,
                        "TEXCOORD_1" : 47
                    },
                    "indices" : 48,
                    "material" : 0
                }
            ]
        }
    ],
    "textures" : [
        {
            "sampler" : 0,
            "source" : 0
        }
    ],
    "images" : [
        {
            "bufferView" : 5,
            "mimeType" : "image/png",
            "name" : "Textures_Props"
        }
    ],
    "accessors" : [
        {
            "bufferView" : 0,
            "componentType" : 5126,
            "count" : 112,
            "max" : [
                2.5,
                0.766447126865387,
                1.0000019073486328
            ],
            "min" : [
                -0.8088928461074829,
                -0.766447126865387,
                -4.551566123962402
            ],
            "type" : "VEC3"
        },
        {
            "bufferView" : 1,
            "componentType" : 5126,
            "count" : 112,
            "type" : "VEC3"
        },
        {
            "bufferView" : 2,
            "componentType" : 5126,
            "count" : 112,
            "type" : "VEC2"
        },
        {
            "bufferView" : 3,
            "componentType" : 5126,
            "count" : 112,
            "type" : "VEC2"
        },
        {
            "bufferView" : 4,
            "componentType" : 5123,
            "count" : 186,
            "type" : "SCALAR"
        },
        {
            "bufferView" : 6,
            "componentType" : 5126,
            "count" : 164,
            "max" : [
                2.5,
                0.766447126865387,
                1.0000019073486328
            ],
            "min" : [
                -2.5,
                -0.766447126865387,
                -4.551566123962402
            ],
            "type" : "VEC3"
        },
        {
            "bufferView" : 7,
            "componentType" : 5126,
            "count" : 164,
            "type" : "VEC3"
        },
        {
            "bufferView" : 8,
            "componentType" : 5126,
            "count" : 164,
            "type" : "VEC2"
        },
        {
            "bufferView" : 9,
            "componentType" : 5126,
            "count" : 164,
            "type" : "VEC2"
        },
        {
            "bufferView" : 10,
            "componentType" : 5123,
            "count" : 282,
            "type" : "SCALAR"
        },
        {
            "bufferView" : 11,
            "componentType" : 5126,
            "count" : 376,
            "max" : [
                1.4339141845703125,
                0.766447126865387,
                0.9931421875953674
            ],
            "min" : [
                -3.5794296264648438,
                -0.766447126865387,
                -5.770775318145752
            ],
            "type" : "VEC3"
        },
        {
            "bufferView" : 12,
            "componentType" : 5126,
            "count" : 376,
            "type" : "VEC3"
        },
        {
            "bufferView" : 13,
            "componentType" : 5126,
            "count" : 376,
            "type" : "VEC2"
        },
        {
            "bufferView" : 14,
            "componentType" : 5126,
            "count" : 376,
            "type" : "VEC2"
        },
        {
            "bufferView" : 15,
            "componentType" : 5123,
            "count" : 582,
            "type" : "SCALAR"
        },
        {
            "bufferView" : 16,
            "componentType" : 5126,
            "count" : 168,
            "max" : [
                1.4339141845703125,
                0.766447126865387,
                0.9931421875953674
            ],
            "min" : [
                -3.5794296264648438,
                -0.766447126865387,
                -4.5584259033203125
            ],
            "type" : "VEC3"
        },
        {
            "bufferView" : 17,
            "componentType" : 5126,
            "count" : 168,
            "type" : "VEC3"
        },
        {
            "bufferView" : 18,
            "componentType" : 5126,
            "count" : 168,
            "type" : "VEC2"
        },
        {
            "bufferView" : 19,
            "componentType" : 5126,
            "count" : 168,
            "type" : "VEC2"
        },
        {
            "bufferView" : 20,
            "componentType" : 5123,
            "count" : 270,
            "type" : "SCALAR"
        },
        {
            "bufferView" : 21,
            "componentType" : 5126,
            "count" : 126,
            "max" : [
                2.5145015716552734,
                0.2909786105155945,
                2.1442770048452076e-06
            ],
            "min" : [
                -3.9936814308166504,
                -0.33021336793899536,
                -1.9940333366394043
            ],
            "type" : "VEC3"
        },
        {
            "bufferView" : 22,
            "componentType" : 5126,
            "count" : 126,
            "type" : "VEC3"
        },
        {
            "bufferView" : 23,
            "componentType" : 5126,
            "count" : 126,
            "type" : "VEC2"
        },
        {
            "bufferView" : 24,
            "componentType" : 5126,
            "count" : 126,
            "type" : "VEC2"
        },
        {
            "bufferView" : 25,
            "componentType" : 5123,
            "count" : 198,
            "type" : "SCALAR"
        },
        {
            "bufferView" : 26,
            "componentType" : 5126,
            "count" : 70,
            "max" : [
                1.466588020324707,
                0.1805117130279541,
                2.1994114831613842e-06
            ],
            "min" : [
                -1.9937212467193604,
                -0.4376375675201416,
                -1.5869958400726318
            ],
            "type" : "VEC3"
        },
        {
            "bufferView" : 27,
            "componentType" : 5126,
            "count" : 70,
            "type" : "VEC3"
        },
        {
            "bufferView" : 28,
            "componentType" : 5126,
            "count" : 70,
            "type" : "VEC2"
        },
        {
            "bufferView" : 29,
            "componentType" : 5126,
            "count" : 70,
            "type" : "VEC2"
        },
        {
            "bufferView" : 30,
            "componentType" : 5123,
            "count" : 111,
            "type" : "SCALAR"
        },
        {
            "bufferView" : 31,
            "componentType" : 5126,
            "count" : 208,
            "max" : [
                1.8330872058868408,
                4.306623935699463,
                2.19345088225964e-06
            ],
            "min" : [
                -4.827535629272461,
                -1.886501669883728,
                -2.484900712966919
            ],
            "type" : "VEC3"
        },
        {
            "bufferView" : 32,
            "componentType" : 5126,
            "count" : 208,
            "type" : "VEC3"
        },
        {
            "bufferView" : 33,
            "componentType" : 5126,
            "count" : 208,
            "type" : "VEC2"
        },
        {
            "bufferView" : 34,
            "componentType" : 5126,
            "count" : 208,
            "type" : "VEC2"
        },
        {
            "bufferView" : 35,
            "componentType" : 5123,
            "count" : 351,
            "type" : "SCALAR"
        },
        {
            "bufferView" : 36,
            "componentType" : 5126,
            "count" : 4,
            "max" : [
                0,
                0,
                0
            ],
            "min" : [
                -5,
                -5,
                -1.1102230246251565e-15
            ],
            "type" : "VEC3"
        },
        {
            "bufferView" : 37,
            "componentType" : 5126,
            "count" : 4,
            "type" : "VEC3"
        },
        {
            "bufferView" : 38,
            "componentType" : 5126,
            "count" : 4,
            "type" : "VEC2"
        },
        {
            "bufferView" : 39,
            "componentType" : 5126,
            "count" : 4,
            "type" : "VEC2"
        },
        {
            "bufferView" : 40,
            "componentType" : 5123,
            "count" : 6,
            "type" : "SCALAR"
        },
        {
            "bufferView" : 41,
            "componentType" : 5126,
            "count" : 4,
            "max" : [
                0,
                0,
                0
            ],
            "min" : [
                -5,
                -5,
                -1.1102230246251565e-15
            ],
            "type" : "VEC3"
        },
        {
            "bufferView" : 42,
            "componentType" : 5126,
            "count" : 4,
            "type" : "VEC3"
        },
        {
            "bufferView" : 43,
            "componentType" : 5126,
            "count" : 4,
            "type" : "VEC2"
        },
        {
            "bufferView" : 44,
            "componentType" : 5126,
            "count" : 4,
            "type" : "VEC2"
        },
        {
            "bufferView" : 45,
            "componentType" : 5126,
            "count" : 336,
            "max" : [
                3.3441410064697266,
                1.5578927993774414,
                0
            ],
            "min" : [
                -3.3441410064697266,
                -1.5578927993774414,
                -1.4293242692947388
            ],
            "type" : "VEC3"
        },
        {
            "bufferView" : 46,
            "componentType" : 5126,
            "count" : 336,
            "type" : "VEC3"
        },
        {
            "bufferView" : 47,
            "componentType" : 5126,
            "count" : 336,
            "type" : "VEC2"
        },
        {
            "bufferView" : 48,
            "componentType" : 5126,
            "count" : 336,
            "type" : "VEC2"
        },
        {
            "bufferView" : 49,
            "componentType" : 5123,
            "count" : 504,
            "type" : "SCALAR"
        }
    ],
    "bufferViews" : [
        {
            "buffer" : 0,
            "byteLength" : 1344,
            "byteOffset" : 0
        },
        {
            "buffer" : 0,
            "byteLength" : 1344,
            "byteOffset" : 1344
        },
        {
            "buffer" : 0,
            "byteLength" : 896,
            "byteOffset" : 2688
        },
        {
            "buffer" : 0,
            "byteLength" : 896,
            "byteOffset" : 3584
        },
        {
            "buffer" : 0,
            "byteLength" : 372,
            "byteOffset" : 4480
        },
        {
            "buffer" : 0,
            "byteLength" : 91097,
            "byteOffset" : 4852
        },
        {
            "buffer" : 0,
            "byteLength" : 1968,
            "byteOffset" : 95952
        },
        {
            "buffer" : 0,
            "byteLength" : 1968,
            "byteOffset" : 97920
        },
        {
            "buffer" : 0,
            "byteLength" : 1312,
            "byteOffset" : 99888
        },
        {
            "buffer" : 0,
            "byteLength" : 1312,
            "byteOffset" : 101200
        },
        {
            "buffer" : 0,
            "byteLength" : 564,
            "byteOffset" : 102512
        },
        {
            "buffer" : 0,
            "byteLength" : 4512,
            "byteOffset" : 103076
        },
        {
            "buffer" : 0,
            "byteLength" : 4512,
            "byteOffset" : 107588
        },
        {
            "buffer" : 0,
            "byteLength" : 3008,
            "byteOffset" : 112100
        },
        {
            "buffer" : 0,
            "byteLength" : 3008,
            "byteOffset" : 115108
        },
        {
            "buffer" : 0,
            "byteLength" : 1164,
            "byteOffset" : 118116
        },
        {
            "buffer" : 0,
            "byteLength" : 2016,
            "byteOffset" : 119280
        },
        {
            "buffer" : 0,
            "byteLength" : 2016,
            "byteOffset" : 121296
        },
        {
            "buffer" : 0,
            "byteLength" : 1344,
            "byteOffset" : 123312
        },
        {
            "buffer" : 0,
            "byteLength" : 1344,
            "byteOffset" : 124656
        },
        {
            "buffer" : 0,
            "byteLength" : 540,
            "byteOffset" : 126000
        },
        {
            "buffer" : 0,
            "byteLength" : 1512,
            "byteOffset" : 126540
        },
        {
            "buffer" : 0,
            "byteLength" : 1512,
            "byteOffset" : 128052
        },
        {
            "buffer" : 0,
            "byteLength" : 1008,
            "byteOffset" : 129564
        },
        {
            "buffer" : 0,
            "byteLength" : 1008,
            "byteOffset" : 130572
        },
        {
            "buffer" : 0,
            "byteLength" : 396,
            "byteOffset" : 131580
        },
        {
            "buffer" : 0,
            "byteLength" : 840,
            "byteOffset" : 131976
        },
        {
            "buffer" : 0,
            "byteLength" : 840,
            "byteOffset" : 132816
        },
        {
            "buffer" : 0,
            "byteLength" : 560,
            "byteOffset" : 133656
        },
        {
            "buffer" : 0,
            "byteLength" : 560,
            "byteOffset" : 134216
        },
        {
            "buffer" : 0,
            "byteLength" : 222,
            "byteOffset" : 134776
        },
        {
            "buffer" : 0,
            "byteLength" : 2496,
            "byteOffset" : 135000
        },
        {
            "buffer" : 0,
            "byteLength" : 2496,
            "byteOffset" : 137496
        },
        {
            "buffer" : 0,
            "byteLength" : 1664,
            "byteOffset" : 139992
        },
        {
            "buffer" : 0,
            "byteLength" : 1664,
            "byteOffset" : 141656
        },
        {
            "buffer" : 0,
            "byteLength" : 702,
            "byteOffset" : 143320
        },
        {
            "buffer" : 0,
            "byteLength" : 48,
            "byteOffset" : 144024
        },
        {
            "buffer" : 0,
            "byteLength" : 48,
            "byteOffset" : 144072
        },
        {
            "buffer" : 0,
            "byteLength" : 32,
            "byteOffset" : 144120
        },
        {
            "buffer" : 0,
            "byteLength" : 32,
            "byteOffset" : 144152
        },
        {
            "buffer" : 0,
            "byteLength" : 12,
            "byteOffset" : 144184
        },
        {
            "buffer" : 0,
            "byteLength" : 48,
            "byteOffset" : 144196
        },
        {
            "buffer" : 0,
            "byteLength" : 48,
            "byteOffset" : 144244
        },
        {
            "buffer" : 0,
            "byteLength" : 32,
            "byteOffset" : 144292
        },
        {
            "buffer" : 0,
            "byteLength" : 32,
            "byteOffset" : 144324
        },
        {
            "buffer" : 0,
            "byteLength" : 4032,
            "byteOffset" : 144356
        },
        {
            "buffer" : 0,
            "byteLength" : 4032,
            "byteOffset" : 148388
        },
        {
            "buffer" : 0,
            "byteLength" : 2688,
            "byteOffset" : 152420
        },
        {
            "buffer" : 0,
            "byteLength" : 2688,
            "byteOffset" : 155108
        },
        {
            "buffer" : 0,
            "byteLength" : 1008,
            "byteOffset" : 157796
        }
    ],
    "samplers" : [
        {
            "magFilter" : 9729,
            "minFilter" : 9987
        }
    ],
    "buffers" : [
        {
            "byteLength" : 158804,
            "uri" : "data:application/octet-stream;base64,"
        }
    ]
}
