{
    "asset" : {
        "generator" : "Khronos glTF Blender I/O v1.6.16",
        "version" : "2.0"
    },
    "scene" : 0,
    "scenes" : [
        {
            "name" : "Scene",
            "nodes" : [
                6,
                7,
                8
            ]
        }
    ],
    "nodes" : [
        {
            "mesh" : 0,
            "name" : "Wheel_fl.001"
        },
        {
            "mesh" : 1,
            "name" : "Wheel_fr.001"
        },
        {
            "mesh" : 2,
            "name" : "Wheel_rl.001"
        },
        {
            "mesh" : 3,
            "name" : "Wheel_rl2.001"
        },
        {
            "mesh" : 4,
            "name" : "Wheel_rr.001"
        },
        {
            "mesh" : 5,
            "name" : "Wheel_rr2.001"
        },
        {
            "children" : [
                0,
                1,
                2,
                3,
                4,
                5
            ],
            "mesh" : 6,
            "name" : "SK_Veh_Truck_Troop_02",
            "rotation" : [
                0.7071068286895752,
                0,
                0,
                0.7071067094802856
            ],
            "scale" : [
                0.009999999776482582,
                0.009999999776482582,
                0.009999999776482582
            ]
        },
        {
            "mesh" : 7,
            "name" : "SA_Prop_AmmoPile_M_01",
            "rotation" : [
                0.6360437870025635,
                0.30894726514816284,
                -0.3089473247528076,
                0.6360437273979187
            ],
            "translation" : [
                -2.5066113471984863,
                0,
                -8.741905212402344
            ]
        },
        {
            "mesh" : 8,
            "name" : "SA_Prop_AmmoPile_S_01",
            "rotation" : [
                -0.5575628280639648,
                0.43488356471061707,
                -0.43488362431526184,
                -0.5575627088546753
            ],
            "translation" : [
                5.2464752197265625,
                0,
                -6.693418979644775
            ]
        }
    ],
    "materials" : [
        {
            "doubleSided" : true,
            "name" : "Milatary_brown",
            "pbrMetallicRoughness" : {
                "baseColorTexture" : {
                    "index" : 0
                },
                "metallicFactor" : 0,
                "roughnessFactor" : 0.5527864098548889
            }
        },
        {
            "doubleSided" : true,
            "name" : "ammo_texture",
            "pbrMetallicRoughness" : {
                "baseColorTexture" : {
                    "index" : 1
                },
                "metallicFactor" : 0,
                "roughnessFactor" : 0.5
            }
        }
    ],
    "meshes" : [
        {
            "name" : "Mesh.008",
            "primitives" : [
                {
                    "attributes" : {
                        "POSITION" : 0,
                        "NORMAL" : 1,
                        "TEXCOORD_0" : 2
                    },
                    "indices" : 3,
                    "material" : 0
                }
            ]
        },
        {
            "name" : "Mesh.009",
            "primitives" : [
                {
                    "attributes" : {
                        "POSITION" : 4,
                        "NORMAL" : 5,
                        "TEXCOORD_0" : 6
                    },
                    "indices" : 7,
                    "material" : 0
                }
            ]
        },
        {
            "name" : "Mesh.010",
            "primitives" : [
                {
                    "attributes" : {
                        "POSITION" : 8,
                        "NORMAL" : 9,
                        "TEXCOORD_0" : 10
                    },
                    "indices" : 11,
                    "material" : 0
                }
            ]
        },
        {
            "name" : "Mesh.011",
            "primitives" : [
                {
                    "attributes" : {
                        "POSITION" : 12,
                        "NORMAL" : 13,
                        "TEXCOORD_0" : 14
                    },
                    "indices" : 15,
                    "material" : 0
                }
            ]
        },
        {
            "name" : "Mesh.012",
            "primitives" : [
                {
                    "attributes" : {
                        "POSITION" : 16,
                        "NORMAL" : 17,
                        "TEXCOORD_0" : 18
                    },
                    "indices" : 19,
                    "material" : 0
                }
            ]
        },
        {
            "name" : "Mesh.013",
            "primitives" : [
                {
                    "attributes" : {
                        "POSITION" : 20,
                        "NORMAL" : 21,
                        "TEXCOORD_0" : 22
                    },
                    "indices" : 23,
                    "material" : 0
                }
            ]
        },
        {
            "name" : "Mesh.007",
            "primitives" : [
                {
                    "attributes" : {
                        "POSITION" : 24,
                        "NORMAL" : 25,
                        "TEXCOORD_0" : 26
                    },
                    "indices" : 27,
                    "material" : 0
                }
            ]
        },
        {
            "name" : "SA_Prop_AmmoPile_M_01",
            "primitives" : [
                {
                    "attributes" : {
                        "POSITION" : 28,
                        "NORMAL" : 29,
                        "TEXCOORD_0" : 30
                    },
                    "indices" : 31,
                    "material" : 1
                }
            ]
        },
        {
            "name" : "SA_Prop_AmmoPile_S_01",
            "primitives" : [
                {
                    "attributes" : {
                        "POSITION" : 32,
                        "NORMAL" : 33,
                        "TEXCOORD_0" : 34
                    },
                    "indices" : 35,
                    "material" : 1
                }
            ]
        }
    ],
    "textures" : [
        {
            "sampler" : 0,
            "source" : 0
        },
        {
            "sampler" : 0,
            "source" : 1
        }
    ],
    "images" : [
        {
            "bufferView" : 4,
            "mimeType" : "image/png",
            "name" : "Tex_Military_Brown"
        },
        {
            "bufferView" : 33,
            "mimeType" : "image/png",
            "name" : "SimpleApocalypse_Texture"
        }
    ],
    "accessors" : [
        {
            "bufferView" : 0,
            "componentType" : 5126,
            "count" : 136,
            "max" : [
                184.1690216064453,
                472.2572937011719,
                1.9073486328125e-06
            ],
            "min" : [
                151.0067901611328,
                320.4507751464844,
                -151.8068084716797
            ],
            "type" : "VEC3"
        },
        {
            "bufferView" : 1,
            "componentType" : 5126,
            "count" : 136,
            "type" : "VEC3"
        },
        {
            "bufferView" : 2,
            "componentType" : 5126,
            "count" : 136,
            "type" : "VEC2"
        },
        {
            "bufferView" : 3,
            "componentType" : 5123,
            "count" : 138,
            "type" : "SCALAR"
        },
        {
            "bufferView" : 5,
            "componentType" : 5126,
            "count" : 122,
            "max" : [
                -151.00677490234375,
                472.25726318359375,
                1.9073486328125e-06
            ],
            "min" : [
                -184.1689910888672,
                320.4508056640625,
                -151.8068084716797
            ],
            "type" : "VEC3"
        },
        {
            "bufferView" : 6,
            "componentType" : 5126,
            "count" : 122,
            "type" : "VEC3"
        },
        {
            "bufferView" : 7,
            "componentType" : 5126,
            "count" : 122,
            "type" : "VEC2"
        },
        {
            "bufferView" : 8,
            "componentType" : 5123,
            "count" : 138,
            "type" : "SCALAR"
        },
        {
            "bufferView" : 9,
            "componentType" : 5126,
            "count" : 132,
            "max" : [
                184.1690216064453,
                -108.84322357177734,
                1.9073486328125e-06
            ],
            "min" : [
                151.00677490234375,
                -260.64971923828125,
                -151.8068084716797
            ],
            "type" : "VEC3"
        },
        {
            "bufferView" : 10,
            "componentType" : 5126,
            "count" : 132,
            "type" : "VEC3"
        },
        {
            "bufferView" : 11,
            "componentType" : 5126,
            "count" : 132,
            "type" : "VEC2"
        },
        {
            "bufferView" : 12,
            "componentType" : 5123,
            "count" : 138,
            "type" : "SCALAR"
        },
        {
            "bufferView" : 13,
            "componentType" : 5126,
            "count" : 125,
            "max" : [
                184.1689910888672,
                -292.133544921875,
                -5.7220458984375e-06
            ],
            "min" : [
                151.00677490234375,
                -443.94000244140625,
                -151.80679321289062
            ],
            "type" : "VEC3"
        },
        {
            "bufferView" : 14,
            "componentType" : 5126,
            "count" : 125,
            "type" : "VEC3"
        },
        {
            "bufferView" : 15,
            "componentType" : 5126,
            "count" : 125,
            "type" : "VEC2"
        },
        {
            "bufferView" : 16,
            "componentType" : 5123,
            "count" : 138,
            "type" : "SCALAR"
        },
        {
            "bufferView" : 17,
            "componentType" : 5126,
            "count" : 138,
            "max" : [
                -151.0067901611328,
                -108.84320831298828,
                1.9073486328125e-06
            ],
            "min" : [
                -184.16900634765625,
                -260.649658203125,
                -151.8068084716797
            ],
            "type" : "VEC3"
        },
        {
            "bufferView" : 18,
            "componentType" : 5126,
            "count" : 138,
            "type" : "VEC3"
        },
        {
            "bufferView" : 19,
            "componentType" : 5126,
            "count" : 138,
            "type" : "VEC2"
        },
        {
            "bufferView" : 20,
            "componentType" : 5123,
            "count" : 138,
            "type" : "SCALAR"
        },
        {
            "bufferView" : 21,
            "componentType" : 5126,
            "count" : 132,
            "max" : [
                -151.0067901611328,
                -292.13348388671875,
                -5.7220458984375e-06
            ],
            "min" : [
                -184.1690216064453,
                -443.9399719238281,
                -151.80679321289062
            ],
            "type" : "VEC3"
        },
        {
            "bufferView" : 22,
            "componentType" : 5126,
            "count" : 132,
            "type" : "VEC3"
        },
        {
            "bufferView" : 23,
            "componentType" : 5126,
            "count" : 132,
            "type" : "VEC2"
        },
        {
            "bufferView" : 24,
            "componentType" : 5123,
            "count" : 138,
            "type" : "SCALAR"
        },
        {
            "bufferView" : 25,
            "componentType" : 5126,
            "count" : 1772,
            "max" : [
                221.1484375,
                540.59814453125,
                -52.311614990234375
            ],
            "min" : [
                -221.14849853515625,
                -540.5982666015625,
                -439.32611083984375
            ],
            "type" : "VEC3"
        },
        {
            "bufferView" : 26,
            "componentType" : 5126,
            "count" : 1772,
            "type" : "VEC3"
        },
        {
            "bufferView" : 27,
            "componentType" : 5126,
            "count" : 1772,
            "type" : "VEC2"
        },
        {
            "bufferView" : 28,
            "componentType" : 5123,
            "count" : 1914,
            "type" : "SCALAR"
        },
        {
            "bufferView" : 29,
            "componentType" : 5126,
            "count" : 760,
            "max" : [
                2.9709699153900146,
                1.6604269742965698,
                0.05552399903535843
            ],
            "min" : [
                -2.9709699153900146,
                -1.6604269742965698,
                -1.5067989826202393
            ],
            "type" : "VEC3"
        },
        {
            "bufferView" : 30,
            "componentType" : 5126,
            "count" : 760,
            "type" : "VEC3"
        },
        {
            "bufferView" : 31,
            "componentType" : 5126,
            "count" : 760,
            "type" : "VEC2"
        },
        {
            "bufferView" : 32,
            "componentType" : 5123,
            "count" : 1380,
            "type" : "SCALAR"
        },
        {
            "bufferView" : 34,
            "componentType" : 5126,
            "count" : 516,
            "max" : [
                1.2962379455566406,
                0.7020300030708313,
                0
            ],
            "min" : [
                -1.2962379455566406,
                -0.7020300030708313,
                -2.856276035308838
            ],
            "type" : "VEC3"
        },
        {
            "bufferView" : 35,
            "componentType" : 5126,
            "count" : 516,
            "type" : "VEC3"
        },
        {
            "bufferView" : 36,
            "componentType" : 5126,
            "count" : 516,
            "type" : "VEC2"
        },
        {
            "bufferView" : 37,
            "componentType" : 5123,
            "count" : 948,
            "type" : "SCALAR"
        }
    ],
    "bufferViews" : [
        {
            "buffer" : 0,
            "byteLength" : 1632,
            "byteOffset" : 0
        },
        {
            "buffer" : 0,
            "byteLength" : 1632,
            "byteOffset" : 1632
        },
        {
            "buffer" : 0,
            "byteLength" : 1088,
            "byteOffset" : 3264
        },
        {
            "buffer" : 0,
            "byteLength" : 276,
            "byteOffset" : 4352
        },
        {
            "buffer" : 0,
            "byteLength" : 61135,
            "byteOffset" : 4628
        },
        {
            "buffer" : 0,
            "byteLength" : 1464,
            "byteOffset" : 65764
        },
        {
            "buffer" : 0,
            "byteLength" : 1464,
            "byteOffset" : 67228
        },
        {
            "buffer" : 0,
            "byteLength" : 976,
            "byteOffset" : 68692
        },
        {
            "buffer" : 0,
            "byteLength" : 276,
            "byteOffset" : 69668
        },
        {
            "buffer" : 0,
            "byteLength" : 1584,
            "byteOffset" : 69944
        },
        {
            "buffer" : 0,
            "byteLength" : 1584,
            "byteOffset" : 71528
        },
        {
            "buffer" : 0,
            "byteLength" : 1056,
            "byteOffset" : 73112
        },
        {
            "buffer" : 0,
            "byteLength" : 276,
            "byteOffset" : 74168
        },
        {
            "buffer" : 0,
            "byteLength" : 1500,
            "byteOffset" : 74444
        },
        {
            "buffer" : 0,
            "byteLength" : 1500,
            "byteOffset" : 75944
        },
        {
            "buffer" : 0,
            "byteLength" : 1000,
            "byteOffset" : 77444
        },
        {
            "buffer" : 0,
            "byteLength" : 276,
            "byteOffset" : 78444
        },
        {
            "buffer" : 0,
            "byteLength" : 1656,
            "byteOffset" : 78720
        },
        {
            "buffer" : 0,
            "byteLength" : 1656,
            "byteOffset" : 80376
        },
        {
            "buffer" : 0,
            "byteLength" : 1104,
            "byteOffset" : 82032
        },
        {
            "buffer" : 0,
            "byteLength" : 276,
            "byteOffset" : 83136
        },
        {
            "buffer" : 0,
            "byteLength" : 1584,
            "byteOffset" : 83412
        },
        {
            "buffer" : 0,
            "byteLength" : 1584,
            "byteOffset" : 84996
        },
        {
            "buffer" : 0,
            "byteLength" : 1056,
            "byteOffset" : 86580
        },
        {
            "buffer" : 0,
            "byteLength" : 276,
            "byteOffset" : 87636
        },
        {
            "buffer" : 0,
            "byteLength" : 21264,
            "byteOffset" : 87912
        },
        {
            "buffer" : 0,
            "byteLength" : 21264,
            "byteOffset" : 109176
        },
        {
            "buffer" : 0,
            "byteLength" : 14176,
            "byteOffset" : 130440
        },
        {
            "buffer" : 0,
            "byteLength" : 3828,
            "byteOffset" : 144616
        },
        {
            "buffer" : 0,
            "byteLength" : 9120,
            "byteOffset" : 148444
        },
        {
            "buffer" : 0,
            "byteLength" : 9120,
            "byteOffset" : 157564
        },
        {
            "buffer" : 0,
            "byteLength" : 6080,
            "byteOffset" : 166684
        },
        {
            "buffer" : 0,
            "byteLength" : 2760,
            "byteOffset" : 172764
        },
        {
            "buffer" : 0,
            "byteLength" : 98503,
            "byteOffset" : 175524
        },
        {
            "buffer" : 0,
            "byteLength" : 6192,
            "byteOffset" : 274028
        },
        {
            "buffer" : 0,
            "byteLength" : 6192,
            "byteOffset" : 280220
        },
        {
            "buffer" : 0,
            "byteLength" : 4128,
            "byteOffset" : 286412
        },
        {
            "buffer" : 0,
            "byteLength" : 1896,
            "byteOffset" : 290540
        }
    ],
    "samplers" : [
        {
            "magFilter" : 9729,
            "minFilter" : 9987
        }
    ],
    "buffers" : [
        {
            "byteLength" : 292436,
            "uri" : "data:application/octet-stream;base64,"
        }
    ]
}
